<svg id="JEW_BTOB_LOGO" xmlns="http://www.w3.org/2000/svg" width="254.263" height="253.513" viewBox="0 0 254.263 253.513">
  <g id="titan_logo" data-name="titan logo">
    <g id="Layer_1" data-name="Layer 1">
      <path id="Path_623" data-name="Path 623" d="M50.23,83.89l80.032-7.52,80.032,7.52-72.531,7.5-7.5,72.522-7.5-72.522Z" transform="translate(-2.537 -3.858)" fill="#fff"/>
      <path id="Path_624" data-name="Path 624" d="M134.52,0V72.512l29.6-22.076Z" transform="translate(-6.795)" fill="#14606e"/>
      <path id="Path_625" data-name="Path 625" d="M164.116,53.12,134.52,75.2l80.032,7.52Z" transform="translate(-6.795 -2.683)" fill="#00b2ad"/>
      <path id="Path_626" data-name="Path 626" d="M142.42,91.791l22.095,22.095,50.437-29.6Z" transform="translate(-7.194 -4.258)" fill="#14606e"/>
      <path id="Path_627" data-name="Path 627" d="M134.52,164.712l29.6-50.427L142.021,92.19Z" transform="translate(-6.795 -4.657)" fill="#00b2ad"/>
      <path id="Path_628" data-name="Path 628" d="M132.945,0V72.512l-29.6-22.076Z" transform="translate(-5.221)" fill="#00b2ad"/>
      <path id="Path_629" data-name="Path 629" d="M100.667,53.12l29.6,22.076L50.23,82.715Z" transform="translate(-2.537 -2.683)" fill="#14606e"/>
      <path id="Path_630" data-name="Path 630" d="M122.761,91.791l-22.095,22.095L50.23,84.29Z" transform="translate(-2.537 -4.258)" fill="#00b2ad"/>
      <path id="Path_631" data-name="Path 631" d="M132.945,164.712l-29.6-50.427L125.445,92.19Z" transform="translate(-5.221 -4.657)" fill="#14606e"/>
      <path id="Path_632" data-name="Path 632" d="M62.9,252.281A3.513,3.513,0,0,0,62.2,249.6a4.747,4.747,0,0,0-2.668-.788c-2.507,0-3.494,1.177-3.6,1.424s-.693.665-.693,3.8v4.918c0,4.5,1.9,5.032,4.254,5.032a3.514,3.514,0,0,0,3.8-3.8H66.43c.1,5.792-5.213,5.792-6.76,5.792-2.972,0-7.529-.152-7.529-7.283v-5.2c0-5.194,2.972-6.646,7.653-6.646s6.532,1.9,6.248,5.46Z" transform="translate(-2.634 -12.469)" fill="#636466"/>
      <path id="Path_633" data-name="Path 633" d="M74.24,258.878V252.84c0-3.665,2.44-6.02,7.491-6.02s7.472,2.355,7.472,6.02v6.039c0,5.089-2.44,7.1-7.491,7.1S74.24,263.968,74.24,258.878Zm11.878.1v-6.219c0-3.845-3.428-3.978-4.387-3.978s-4.387.133-4.387,3.978v6.219c0,4.016,1.519,5.032,4.387,5.032S86.118,263,86.118,258.983Z" transform="translate(-3.75 -12.468)" fill="#636466"/>
      <path id="Path_634" data-name="Path 634" d="M101.568,265.622H98.72V247.23h4.918l6.01,15.429h.066l6.067-15.429h5.042v18.392h-3.038v-16.35h-.057l-6.646,16.35h-2.848l-6.532-16.35h-.066Z" transform="translate(-4.987 -12.488)" fill="#636466"/>
      <path id="Path_635" data-name="Path 635" d="M130.67,265.622V247.23h7.055c3.2,0,6.646.949,6.646,5.251s-4.225,5.042-6.646,5.042h-4v8.1Zm3.029-10.141h3.333c1.253,0,4.225-.256,4.225-3.133s-2.706-3.076-3.371-3.076H133.7Z" transform="translate(-6.601 -12.488)" fill="#636466"/>
      <path id="Path_636" data-name="Path 636" d="M189.66,247.23v18.392H185.91L176.3,250.43h-.076v15.192H173.69V247.23h3.988l9.409,14.973h.066V247.23Z" transform="translate(-8.774 -12.488)" fill="#636466"/>
      <path id="Path_637" data-name="Path 637" d="M209.205,247.23h3.067l-6.5,11.394v7.007h-3.029v-7.007L196.33,247.23h3.4l4.662,8.887Z" transform="translate(-9.917 -12.488)" fill="#636466"/>
      <path id="Path_638" data-name="Path 638" d="M163.733,265.622h3.5l-7.662-18.392H155.6L148,265.622h2.848l6.39-16h.085Z" transform="translate(-7.476 -12.488)" fill="#636466"/>
      <path id="Path_639" data-name="Path 639" d="M21.411,198.031H0V190.34H51.643v7.691h-21.4v30.963h-8.83Z" transform="translate(0 -9.615)" fill="#636466"/>
      <path id="Path_640" data-name="Path 640" d="M109.6,198.031H88.19V190.34h51.643v7.691H118.393v30.963h-8.83Z" transform="translate(-4.455 -9.615)" fill="#636466"/>
      <path id="Path_641" data-name="Path 641" d="M66.66,228.994V190.34h8.868v38.654Z" transform="translate(-3.367 -9.615)" fill="#636466"/>
      <path id="Path_642" data-name="Path 642" d="M264.989,190.34v38.654H253.253L220.97,197.841h-.18v31.153h-8.46V190.34H225.4l30.763,29.88h.171V190.34Z" transform="translate(-10.725 -9.615)" fill="#636466"/>
      <path id="Path_643" data-name="Path 643" d="M189.073,228.994h9.637L174.337,190.34h-9.723L140.25,228.994h9.637l19.464-31.608h.237Z" transform="translate(-7.084 -9.615)" fill="#636466"/>
    </g>
  </g>
</svg>
